<svg width="192" height="46" viewBox="0 0 192 46" fill="none" xmlns="http://www.w3.org/2000/svg">
<g clip-path="url(#clip0_2273_1139)">
<path d="M23.5295 4.85009C24.0595 4.85009 24.5895 4.87009 25.1095 4.91009C25.6295 4.95009 26.1595 5.01009 26.6895 5.09009C27.2095 5.17009 27.7295 5.27009 28.2495 5.39009C28.7695 5.51009 29.2795 5.65009 29.7795 5.80009C30.2895 5.96009 30.7795 6.13009 31.2795 6.33009C31.7695 6.52009 32.2595 6.74009 32.7295 6.97009C33.2095 7.20009 33.6695 7.45009 34.1295 7.72009C34.5895 7.99009 35.0295 8.27009 35.4695 8.57009L39.1095 5.54009C38.8395 5.31009 38.5595 5.09009 38.2795 4.88009C37.9995 4.67009 37.7095 4.46009 37.4195 4.26009C37.1295 4.06009 36.8295 3.86009 36.5395 3.68009C36.2395 3.49009 35.9395 3.31009 35.6295 3.14009C35.3195 2.97009 35.0095 2.80009 34.6995 2.64009C34.3895 2.48009 34.0695 2.33009 33.7495 2.18009C33.4295 2.03009 33.0995 1.89009 32.7795 1.76009C32.4495 1.63009 32.1195 1.50009 31.7895 1.39009C31.4595 1.28009 31.1195 1.16009 30.7795 1.06009C30.4395 0.960089 30.0995 0.860089 29.7595 0.770089C29.4195 0.680089 29.0695 0.600089 28.7295 0.530089C28.3795 0.460089 28.0395 0.390089 27.6895 0.340089C27.3395 0.280089 26.9895 0.230089 26.6395 0.190089C26.2895 0.150089 25.9395 0.120089 25.5795 0.090089C25.2295 0.060089 24.8695 0.050089 24.5195 0.040089C24.1695 0.040089 23.8095 0.030089 23.4595 0.040089C23.1095 0.040089 22.7495 0.060089 22.3995 0.080089C22.0495 0.100089 21.6895 0.130089 21.3395 0.170089C20.9895 0.210089 20.6395 0.250089 20.2895 0.310089C19.9395 0.360089 19.5895 0.420089 19.2495 0.490089C18.8995 0.560089 18.5595 0.630089 18.2095 0.720089C17.8695 0.800089 17.5195 0.900089 17.1895 0.990089C16.8495 1.09009 16.5095 1.20009 16.1795 1.31009C15.8495 1.42009 15.5095 1.55009 15.1795 1.67009C14.8495 1.80009 14.5195 1.94009 14.1995 2.08009C13.8795 2.22009 13.5595 2.37009 13.2395 2.53009C12.9195 2.69009 12.6095 2.85009 12.2995 3.02009C11.9895 3.19009 11.6895 3.37009 11.3795 3.56009C11.0795 3.75009 10.7795 3.94009 10.4895 4.14009C10.1995 4.34009 9.90953 4.54009 9.62953 4.75009C9.34953 4.96009 9.06953 5.18009 8.78953 5.40009C8.51953 5.62009 8.24953 5.85009 7.97953 6.09009C7.71953 6.33009 7.45953 6.57009 7.19953 6.81009C6.94953 7.06009 6.69953 7.31009 6.45953 7.57009C6.21953 7.83009 5.97953 8.09009 5.74953 8.36009C5.51953 8.63009 5.29953 8.90009 5.07953 9.18009C4.85953 9.46009 4.64953 9.74009 4.44953 10.0301C4.23953 10.3201 4.04953 10.6101 3.84953 10.9101C3.65953 11.2101 3.46953 11.5101 3.28953 11.8101C3.10953 12.1201 2.93953 12.4201 2.76953 12.7401C2.59953 13.0501 2.44953 13.3701 2.29953 13.6901C2.14953 14.0101 2.00953 14.3301 1.86953 14.6601C1.72953 14.9901 1.59953 15.3201 1.47953 15.6501C1.35953 15.9801 1.23953 16.3201 1.13953 16.6501C1.02953 16.9901 0.929531 17.3301 0.839531 17.6701C0.749531 18.0101 0.659531 18.3501 0.589531 18.7001C0.509531 19.0501 0.439531 19.3901 0.379531 19.7401C0.319531 20.0901 0.269531 20.4401 0.219531 20.7901C0.169531 21.1401 0.139531 21.4901 0.109531 21.8401C0.0795313 22.1901 0.0595312 22.5501 0.0395312 22.9001C0.0295312 23.2501 0.0195312 23.6101 0.0195312 23.9601C0.0195312 24.3101 0.0295313 24.6701 0.0495313 25.0201C0.0695313 25.3701 0.0895312 25.7301 0.119531 26.0801C0.149531 26.4301 0.189531 26.7801 0.239531 27.1301C0.289531 27.4801 0.339531 27.8301 0.409531 28.1801C0.469531 28.5301 0.549531 28.8701 0.619531 29.2201C0.699531 29.5601 0.789531 29.9101 0.879531 30.2501C0.969531 30.5901 1.07953 30.9301 1.18953 31.2701C1.29953 31.6101 1.41953 31.9401 1.53953 32.2701C1.65953 32.6001 1.79953 32.9301 1.93953 33.2501C2.07953 33.5801 2.22953 33.9001 2.37953 34.2201C2.52953 34.5401 2.68953 34.8501 2.85953 35.1701C3.02953 35.4801 3.19953 35.7901 3.37953 36.0901C3.55953 36.3901 3.74953 36.6901 3.93953 36.9901H5.54953C5.42953 36.7901 5.30953 36.5901 5.19953 36.3901C5.08953 36.1901 4.96953 35.9801 4.86953 35.7801C4.75953 35.5701 4.65953 35.3701 4.55953 35.1601C4.45953 34.9501 4.35953 34.7401 4.26953 34.5301C4.17953 34.3201 4.08953 34.1001 3.99953 33.8901C3.90953 33.6701 3.82953 33.4601 3.74953 33.2401C3.66953 33.0201 3.58953 32.8001 3.51953 32.5801C3.44953 32.3601 3.37953 32.1401 3.30953 31.9101C3.23953 31.6901 3.17953 31.4601 3.12953 31.2401C3.06953 31.0101 3.01953 30.7901 2.96953 30.5601C2.91953 30.3301 2.86953 30.1001 2.82953 29.8801C2.78953 29.6501 2.74953 29.4201 2.70953 29.1901C2.66953 28.9601 2.63953 28.7301 2.61953 28.5001C2.58953 28.2701 2.56953 28.0401 2.54953 27.8101C2.52953 27.5801 2.50953 27.3501 2.49953 27.1101C2.48953 26.8801 2.47953 26.6401 2.47953 26.4101C2.47953 26.1801 2.47953 25.9401 2.47953 25.7101C2.47953 25.4801 2.48953 25.2401 2.49953 25.0101C2.50953 24.7801 2.52953 24.5501 2.53953 24.3101C2.55953 24.0801 2.57953 23.8501 2.60953 23.6201C2.63953 23.3901 2.66953 23.1601 2.69953 22.9301C2.72953 22.7001 2.76953 22.4701 2.80953 22.2401C2.84953 22.0101 2.89953 21.7801 2.94953 21.5601C2.99953 21.3301 3.04953 21.1101 3.10953 20.8801C3.16953 20.6501 3.22953 20.4301 3.28953 20.2101C3.34953 19.9901 3.41953 19.7601 3.48953 19.5401C3.55953 19.3201 3.63953 19.1001 3.71953 18.8801C3.79953 18.6601 3.87953 18.4401 3.96953 18.2301C4.05953 18.0101 4.14953 17.8001 4.23953 17.5901C4.32953 17.3801 4.42953 17.1601 4.52953 16.9501C4.62953 16.7401 4.72953 16.5301 4.83953 16.3201C4.94953 16.1101 5.05953 15.9101 5.16953 15.7101C5.27953 15.5101 5.39953 15.3101 5.51953 15.1101C5.63953 14.9101 5.75953 14.7101 5.88953 14.5201C6.01953 14.3201 6.14953 14.1301 6.27953 13.9401C6.40953 13.7501 6.54953 13.5601 6.68953 13.3701C6.82953 13.1801 6.96953 13.0001 7.11953 12.8201C7.26953 12.6401 7.40953 12.4601 7.56953 12.2801C7.71953 12.1001 7.87953 11.9301 8.02953 11.7601C8.17953 11.5901 8.34953 11.4201 8.50953 11.2501C8.66953 11.0801 8.83953 10.9201 9.00953 10.7601C9.17953 10.6001 9.34953 10.4401 9.51953 10.2901C9.68953 10.1301 9.86953 9.98009 10.0495 9.83009C10.2295 9.68009 10.4095 9.53009 10.5895 9.39009C10.7695 9.25009 10.9595 9.11009 11.1495 8.97009C11.3395 8.83009 11.5295 8.70009 11.7195 8.57009C11.9095 8.44009 12.1095 8.31009 12.2995 8.19009C12.4995 8.07009 12.6995 7.94009 12.8995 7.83009C13.0995 7.71009 13.2995 7.60009 13.5095 7.49009C13.7095 7.38009 13.9195 7.27009 14.1295 7.17009C14.3395 7.07009 14.5495 6.96009 14.7595 6.87009C14.9695 6.77009 15.1795 6.68009 15.3995 6.59009C15.6095 6.50009 15.8295 6.41009 16.0495 6.33009C16.2695 6.25009 16.4895 6.17009 16.7095 6.09009C16.9295 6.01009 17.1495 5.94009 17.3695 5.87009C17.5895 5.80009 17.8195 5.74009 18.0395 5.68009C18.2595 5.62009 18.4895 5.56009 18.7195 5.51009C18.9495 5.46009 19.1695 5.41009 19.3995 5.36009C19.6295 5.31009 19.8595 5.27009 20.0895 5.23009C20.3195 5.19009 20.5495 5.16009 20.7795 5.13009C21.0095 5.10009 21.2395 5.07009 21.4695 5.05009C21.6995 5.03009 21.9295 5.01009 22.1695 4.99009C22.4095 4.97009 22.6295 4.96009 22.8695 4.95009C23.0995 4.95009 23.3395 4.94009 23.5695 4.94009L23.5295 4.85009Z" fill="#0070AC"/>
<path d="M6.84984 16.1799H19.8998L24.4298 20.4999L44.1198 4.06986L47.3798 3.85986L24.3198 29.8599C24.3198 29.8599 24.2598 29.9299 24.2198 29.9599C24.1898 29.9899 24.1498 30.0199 24.1098 30.0499C24.0698 30.0799 24.0398 30.0999 23.9998 30.1299C23.9598 30.1499 23.9198 30.1799 23.8798 30.1999C23.8398 30.2199 23.7998 30.2399 23.7498 30.2499C23.7098 30.2699 23.6598 30.2799 23.6198 30.2899C23.5798 30.2999 23.5298 30.3099 23.4798 30.3199C23.4298 30.3199 23.3898 30.3299 23.3398 30.3299C23.2898 30.3299 23.2498 30.3299 23.1998 30.3299C23.1498 30.3299 23.1098 30.3299 23.0598 30.3199C23.0098 30.3199 22.9698 30.3099 22.9198 30.2899C22.8698 30.2799 22.8298 30.2699 22.7898 30.2499C22.7498 30.2299 22.6998 30.2199 22.6598 30.1999C22.6198 30.1799 22.5798 30.1599 22.5398 30.1399C22.4998 30.1199 22.4598 30.0899 22.4198 30.0599C22.3798 30.0299 22.3498 29.9999 22.3098 29.9699L6.83984 16.1699L6.84984 16.1799Z" fill="#FD9900"/>
<path d="M45.1397 15.4499H41.1997C41.1997 15.4499 41.1197 15.4499 41.0797 15.4499C41.0397 15.4499 40.9997 15.4499 40.9597 15.4599C40.9197 15.4599 40.8797 15.4699 40.8397 15.4799C40.7997 15.4799 40.7597 15.4999 40.7297 15.5099C40.6897 15.5199 40.6597 15.5399 40.6197 15.5499C40.5797 15.5599 40.5497 15.5799 40.5097 15.5999C40.4797 15.6199 40.4397 15.6399 40.4097 15.6599C40.3797 15.6799 40.3397 15.6999 40.3097 15.7299C40.2797 15.7499 40.2497 15.7799 40.2197 15.8099C40.1897 15.8399 40.1597 15.8599 40.1297 15.8899C40.0997 15.9199 40.0797 15.9499 40.0497 15.9799C40.0297 16.0099 39.9997 16.0399 39.9797 16.0799C39.9597 16.1199 39.9397 16.1499 39.9197 16.1799C39.8997 16.2099 39.8797 16.2499 39.8697 16.2899C39.8497 16.3299 39.8397 16.3599 39.8197 16.3999C39.8097 16.4399 39.7897 16.4699 39.7797 16.5099L38.2997 21.7499H34.3497L24.7997 32.6199C24.7997 32.6199 24.7597 32.6599 24.7397 32.6799C24.7197 32.6999 24.6997 32.7199 24.6797 32.7399C24.6597 32.7599 24.6397 32.7799 24.6097 32.7999C24.5897 32.8199 24.5597 32.8399 24.5397 32.8499C24.5197 32.8699 24.4897 32.8799 24.4697 32.8999C24.4497 32.9199 24.4197 32.9299 24.3997 32.9499C24.3797 32.9699 24.3497 32.9799 24.3197 32.9899C24.2897 32.9999 24.2697 33.0199 24.2397 33.0299C24.2097 33.0399 24.1897 33.0599 24.1597 33.0699C24.1297 33.0799 24.1097 33.0899 24.0797 33.0999C24.0497 33.1099 24.0297 33.1199 23.9997 33.1299C23.9697 33.1299 23.9397 33.1499 23.9197 33.1499C23.8897 33.1499 23.8597 33.1599 23.8297 33.1699C23.7997 33.1699 23.7697 33.1799 23.7397 33.1899C23.7097 33.1899 23.6797 33.1899 23.6497 33.1999C23.6197 33.1999 23.5897 33.1999 23.5597 33.1999C23.5297 33.1999 23.4997 33.1999 23.4697 33.1999C23.4397 33.1999 23.4097 33.1999 23.3797 33.1999C23.3497 33.1999 23.3197 33.1999 23.2897 33.1999C23.2597 33.1999 23.2297 33.1999 23.1997 33.1999C23.1697 33.1999 23.1397 33.1999 23.1097 33.1899C23.0797 33.1899 23.0497 33.1799 23.0197 33.1699C22.9897 33.1699 22.9597 33.1599 22.9397 33.1499C22.9097 33.1499 22.8797 33.1299 22.8597 33.1199C22.8397 33.1099 22.8097 33.0999 22.7797 33.0899C22.7497 33.0799 22.7297 33.0699 22.6997 33.0599C22.6697 33.0499 22.6497 33.0299 22.6197 33.0199C22.5897 33.0099 22.5697 32.9899 22.5397 32.9799C22.5097 32.9699 22.4897 32.9499 22.4697 32.9299C22.4497 32.9099 22.4197 32.8999 22.3997 32.8799C22.3797 32.8599 22.3497 32.8499 22.3297 32.8299C22.3097 32.8099 22.2797 32.7899 22.2597 32.7699L9.81973 21.7399H6.15973C6.15973 21.7399 6.12973 21.7399 6.11973 21.7399C6.10973 21.7399 6.08973 21.7399 6.07973 21.7399C6.06973 21.7399 6.04973 21.7399 6.03973 21.7399C6.02973 21.7399 6.00973 21.7399 5.99973 21.7399C5.98973 21.7399 5.96973 21.7399 5.95973 21.7499C5.94973 21.7499 5.92973 21.7499 5.91973 21.7599C5.90973 21.7599 5.88973 21.7699 5.87973 21.7799C5.86973 21.7799 5.84973 21.7899 5.83973 21.7999C5.82973 21.7999 5.80973 21.8099 5.79973 21.8199C5.78973 21.8199 5.77973 21.8399 5.75973 21.8399C5.74973 21.8399 5.73973 21.8599 5.71973 21.8699C5.70973 21.8699 5.69973 21.8899 5.68973 21.8999C5.67973 21.8999 5.66973 21.9199 5.65973 21.9299C5.64973 21.9399 5.63973 21.9499 5.62973 21.9599C5.62973 21.9699 5.60973 21.9799 5.59973 21.9899C5.59973 21.9999 5.57973 22.0099 5.56973 22.0199C5.56973 22.0299 5.54973 22.0399 5.54973 22.0599C5.54973 22.0699 5.53973 22.0799 5.52973 22.0999C5.52973 22.1099 5.51973 22.1299 5.50973 22.1399C5.50973 22.1499 5.49973 22.1699 5.48973 22.1799C5.48973 22.1899 5.47973 22.2099 5.47973 22.2199C5.47973 22.2299 5.47973 22.2499 5.46973 22.2599C5.46973 22.2699 5.46973 22.2899 5.46973 22.2999C5.46973 22.3099 5.46973 22.3299 5.46973 22.3399C5.46973 22.3499 5.46973 22.3699 5.46973 22.3799C5.46973 22.3899 5.46973 22.4099 5.46973 22.4199C5.46973 22.4299 5.46973 22.4499 5.46973 22.4599C5.46973 22.4699 5.46973 22.4899 5.46973 22.4999C5.46973 22.5099 5.46973 22.5299 5.46973 22.5399C5.46973 22.5499 5.46973 22.5699 5.46973 22.5799C5.46973 22.5899 5.46973 22.6099 5.47973 22.6199C5.47973 22.6299 5.47973 22.6499 5.48973 22.6599L10.3297 36.4599C10.3297 36.4599 10.3597 36.5299 10.3797 36.5599C10.3997 36.5899 10.4197 36.6299 10.4397 36.6599C10.4597 36.6899 10.4897 36.7199 10.5197 36.7499C10.5497 36.7799 10.5797 36.7999 10.6097 36.8199C10.6397 36.8399 10.6697 36.8599 10.7097 36.8799C10.7397 36.8999 10.7797 36.9099 10.8197 36.9199C10.8597 36.9299 10.8897 36.9399 10.9297 36.9399C10.9697 36.9399 11.0097 36.9399 11.0397 36.9399H32.5597C32.5597 36.9399 32.6497 36.9399 32.6997 36.9399C32.7497 36.9399 32.7897 36.9499 32.8397 36.9599C32.8897 36.9599 32.9297 36.9799 32.9797 36.9899C33.0197 36.9999 33.0697 37.0199 33.1097 37.0399C33.1497 37.0599 33.1997 37.0799 33.2397 37.0999C33.2797 37.1199 33.3197 37.1499 33.3597 37.1699C33.3997 37.1999 33.4397 37.2199 33.4697 37.2499C33.5097 37.2799 33.5397 37.3099 33.5697 37.3399C33.5997 37.3699 33.6297 37.4099 33.6597 37.4399C33.6897 37.4799 33.7197 37.5099 33.7397 37.5499C33.7697 37.5899 33.7897 37.6299 33.8097 37.6699C33.8297 37.7099 33.8497 37.7499 33.8697 37.7999C33.8897 37.8399 33.8997 37.8899 33.9197 37.9299C33.9297 37.9699 33.9497 38.0199 33.9497 38.0699C33.9497 38.1199 33.9697 38.1599 33.9697 38.2099C33.9697 38.2599 33.9697 38.2999 33.9697 38.3499C33.9697 38.3999 33.9697 38.4399 33.9697 38.4899C33.9697 38.5399 33.9597 38.5799 33.9497 38.6299C33.9497 38.6799 33.9297 38.7199 33.9197 38.7699C33.9097 38.8199 33.8897 38.8599 33.8697 38.8999C33.8497 38.9399 33.8297 38.9899 33.8097 39.0299C33.7897 39.0699 33.7597 39.1099 33.7397 39.1499C33.7097 39.1899 33.6897 39.2299 33.6597 39.2599C33.6297 39.2999 33.5997 39.3299 33.5697 39.3599C33.5397 39.3899 33.4997 39.4199 33.4697 39.4499C33.4297 39.4799 33.3997 39.5099 33.3597 39.5299C33.3197 39.5599 33.2797 39.5799 33.2397 39.5999C33.1997 39.6199 33.1597 39.6399 33.1097 39.6599C33.0697 39.6799 33.0197 39.6899 32.9797 39.7099C32.9297 39.7199 32.8897 39.7399 32.8397 39.7399C32.7897 39.7399 32.7497 39.7599 32.6997 39.7599C32.6497 39.7599 32.6097 39.7599 32.5597 39.7599H13.3197C13.2697 39.7599 13.2197 39.7599 13.1697 39.7599C13.1197 39.7599 13.0697 39.7599 13.0197 39.7799C12.9697 39.7799 12.9197 39.7999 12.8697 39.8099C12.8197 39.8199 12.7697 39.8399 12.7197 39.8599C12.6697 39.8799 12.6297 39.8999 12.5797 39.9199C12.5297 39.9399 12.4897 39.9699 12.4497 39.9999C12.4097 40.0299 12.3597 40.0599 12.3197 40.0899C12.2797 40.1199 12.2397 40.1599 12.1997 40.1899C12.1597 40.2299 12.1297 40.2599 12.0897 40.2999C12.0597 40.3399 12.0297 40.3799 11.9997 40.4199C11.9697 40.4599 11.9397 40.5099 11.9197 40.5499C11.8997 40.5899 11.8697 40.6399 11.8497 40.6899C11.8297 40.7399 11.8097 40.7899 11.7997 40.8299C11.7797 40.8799 11.7697 40.9299 11.7597 40.9799C11.7497 41.0299 11.7397 41.0799 11.7397 41.1299C11.7397 41.1799 11.7397 41.2299 11.7397 41.2799C11.7397 41.3299 11.7397 41.3799 11.7397 41.4299C11.7397 41.4799 11.7497 41.5299 11.7597 41.5799C11.7697 41.6299 11.7797 41.6799 11.7997 41.7299C11.8197 41.7799 11.8297 41.8299 11.8497 41.8699C11.8697 41.9199 11.8897 41.9599 11.9197 42.0099C11.9397 42.0599 11.9697 42.0999 11.9997 42.1399C12.0297 42.1799 12.0597 42.2199 12.0897 42.2599C12.1197 42.2999 12.1597 42.3399 12.1997 42.3699C12.2397 42.4099 12.2797 42.4399 12.3197 42.4699C12.3597 42.4999 12.3997 42.5299 12.4497 42.5599C12.4897 42.5899 12.5397 42.6099 12.5797 42.6399C12.6297 42.6599 12.6697 42.6799 12.7197 42.6999C12.7697 42.7199 12.8197 42.7299 12.8697 42.7499C12.9197 42.7599 12.9697 42.7699 13.0197 42.7799C13.0697 42.7799 13.1197 42.7899 13.1697 42.7999C13.2197 42.7999 13.2697 42.7999 13.3197 42.7999H15.5697C15.5597 42.9099 15.5497 43.0099 15.5497 43.1199C15.5497 43.1599 15.5497 43.1999 15.5497 43.2299C15.5497 43.2699 15.5497 43.3099 15.5497 43.3399C15.5497 43.3799 15.5497 43.4099 15.5597 43.4499C15.5597 43.4899 15.5697 43.5199 15.5797 43.5599C15.5797 43.5999 15.5997 43.6299 15.5997 43.6699C15.5997 43.7099 15.6197 43.7399 15.6297 43.7799C15.6397 43.8199 15.6497 43.8499 15.6697 43.8899C15.6797 43.9299 15.6997 43.9599 15.7097 43.9999C15.7197 44.0299 15.7397 44.0699 15.7597 44.0999C15.7797 44.1299 15.7897 44.1699 15.8097 44.1999C15.8297 44.2299 15.8497 44.2699 15.8697 44.2999C15.8897 44.3299 15.9097 44.3599 15.9297 44.3999C15.9497 44.4299 15.9697 44.4599 15.9997 44.4899C16.0197 44.5199 16.0497 44.5499 16.0697 44.5799C16.0897 44.6099 16.1197 44.6399 16.1397 44.6699C16.1697 44.6999 16.1897 44.7299 16.2197 44.7499C16.2497 44.7799 16.2697 44.7999 16.2997 44.8299C16.3297 44.8599 16.3597 44.8799 16.3897 44.8999C16.4197 44.9199 16.4497 44.9499 16.4797 44.9699C16.5097 44.9899 16.5397 45.0099 16.5697 45.0399C16.5997 45.0599 16.6297 45.0799 16.6697 45.0999C16.6997 45.1199 16.7397 45.1399 16.7697 45.1599C16.7997 45.1799 16.8397 45.1899 16.8697 45.2099C16.8997 45.2299 16.9397 45.2399 16.9697 45.2599C16.9997 45.2799 17.0397 45.2899 17.0797 45.2999C17.1197 45.3099 17.1497 45.3199 17.1897 45.3399C17.2297 45.3499 17.2597 45.3599 17.2997 45.3699C17.3397 45.3699 17.3697 45.3899 17.4097 45.3899C17.4497 45.3899 17.4797 45.3999 17.5197 45.4099C17.5597 45.4099 17.5897 45.4199 17.6297 45.4199C17.6697 45.4199 17.7097 45.4199 17.7397 45.4199C17.7797 45.4199 17.8197 45.4199 17.8497 45.4199C17.8797 45.4199 17.9297 45.4199 17.9597 45.4199C17.9997 45.4199 18.0397 45.4199 18.0697 45.4199C18.1097 45.4199 18.1397 45.4199 18.1797 45.4099C18.2197 45.4099 18.2497 45.3999 18.2897 45.3899C18.3297 45.3899 18.3597 45.3699 18.3997 45.3699C18.4397 45.3699 18.4697 45.3499 18.5097 45.3399C18.5497 45.3299 18.5797 45.3199 18.6197 45.2999C18.6597 45.2899 18.6897 45.2699 18.7297 45.2599C18.7597 45.2499 18.7997 45.2299 18.8297 45.2099C18.8597 45.1899 18.8997 45.1799 18.9297 45.1599C18.9597 45.1399 18.9997 45.1199 19.0297 45.0999C19.0597 45.0799 19.0897 45.0599 19.1297 45.0399C19.1597 45.0199 19.1897 44.9999 19.2197 44.9699C19.2497 44.9499 19.2797 44.9199 19.3097 44.8999C19.3397 44.8799 19.3697 44.8499 19.3997 44.8299C19.4297 44.7999 19.4597 44.7799 19.4797 44.7499C19.4997 44.7199 19.5297 44.6999 19.5597 44.6699C19.5897 44.6399 19.6097 44.6099 19.6297 44.5799C19.6497 44.5499 19.6797 44.5199 19.6997 44.4899C19.7197 44.4599 19.7397 44.4299 19.7697 44.3999C19.7897 44.3699 19.8097 44.3399 19.8297 44.2999C19.8497 44.2699 19.8697 44.2299 19.8897 44.1999C19.9097 44.1699 19.9197 44.1299 19.9397 44.0999C19.9597 44.0699 19.9697 44.0299 19.9897 43.9999C19.9997 43.9699 20.0197 43.9299 20.0297 43.8899C20.0397 43.8499 20.0497 43.8199 20.0697 43.7799C20.0797 43.7399 20.0897 43.7099 20.0997 43.6699C20.0997 43.6299 20.1197 43.5999 20.1197 43.5599C20.1197 43.5199 20.1297 43.4899 20.1397 43.4499C20.1397 43.4099 20.1497 43.3799 20.1497 43.3399C20.1497 43.2999 20.1497 43.2599 20.1497 43.2299C20.1497 43.1899 20.1497 43.1499 20.1497 43.1199C20.1497 43.0099 20.1497 42.9099 20.1297 42.7999H27.3597C27.3497 42.9099 27.3397 43.0099 27.3397 43.1199C27.3397 43.1599 27.3397 43.1999 27.3397 43.2299C27.3397 43.2699 27.3397 43.3099 27.3397 43.3399C27.3397 43.3799 27.3397 43.4099 27.3497 43.4499C27.3497 43.4899 27.3597 43.5199 27.3697 43.5599C27.3697 43.5999 27.3897 43.6299 27.3897 43.6699C27.3897 43.7099 27.4097 43.7399 27.4197 43.7799C27.4297 43.8199 27.4397 43.8499 27.4597 43.8899C27.4697 43.9299 27.4897 43.9599 27.4997 43.9999C27.5097 44.0299 27.5297 44.0699 27.5497 44.0999C27.5697 44.1299 27.5797 44.1699 27.5997 44.1999C27.6197 44.2299 27.6397 44.2699 27.6597 44.2999C27.6797 44.3299 27.6997 44.3599 27.7197 44.3999C27.7397 44.4399 27.7597 44.4599 27.7897 44.4899C27.8097 44.5199 27.8397 44.5499 27.8597 44.5799C27.8797 44.6099 27.9097 44.6399 27.9297 44.6699C27.9597 44.6999 27.9797 44.7299 28.0097 44.7499C28.0397 44.7799 28.0597 44.7999 28.0897 44.8299C28.1197 44.8599 28.1497 44.8799 28.1797 44.8999C28.2097 44.9199 28.2397 44.9499 28.2697 44.9699C28.2997 44.9899 28.3297 45.0099 28.3597 45.0399C28.3897 45.0599 28.4197 45.0799 28.4597 45.0999C28.4897 45.1199 28.5297 45.1399 28.5597 45.1599C28.5897 45.1799 28.6297 45.1899 28.6597 45.2099C28.6897 45.2299 28.7297 45.2399 28.7597 45.2599C28.7897 45.2699 28.8297 45.2899 28.8697 45.2999C28.9097 45.3099 28.9397 45.3199 28.9797 45.3399C29.0197 45.3499 29.0497 45.3599 29.0897 45.3699C29.1297 45.3699 29.1597 45.3899 29.1997 45.3899C29.2397 45.3899 29.2697 45.3999 29.3097 45.4099C29.3497 45.4099 29.3797 45.4199 29.4197 45.4199C29.4597 45.4199 29.4997 45.4199 29.5297 45.4199C29.5697 45.4199 29.6097 45.4199 29.6397 45.4199C29.6697 45.4199 29.7197 45.4199 29.7497 45.4199C29.7897 45.4199 29.8297 45.4199 29.8597 45.4199C29.8997 45.4199 29.9297 45.4199 29.9697 45.4099C30.0097 45.4099 30.0397 45.3999 30.0797 45.3899C30.1197 45.3899 30.1497 45.3699 30.1897 45.3699C30.2297 45.3699 30.2597 45.3499 30.2997 45.3399C30.3397 45.3299 30.3697 45.3199 30.4097 45.2999C30.4497 45.2899 30.4797 45.2699 30.5197 45.2599C30.5497 45.2499 30.5897 45.2299 30.6197 45.2099C30.6497 45.1899 30.6897 45.1799 30.7197 45.1599C30.7497 45.1399 30.7897 45.1199 30.8197 45.0999C30.8497 45.0799 30.8797 45.0599 30.9197 45.0399C30.9497 45.0199 30.9797 44.9999 31.0097 44.9699C31.0397 44.9499 31.0697 44.9199 31.0997 44.8999C31.1297 44.8799 31.1597 44.8499 31.1897 44.8299C31.2197 44.7999 31.2497 44.7799 31.2697 44.7499C31.2997 44.7199 31.3197 44.6999 31.3497 44.6699C31.3797 44.6399 31.3997 44.6099 31.4197 44.5799C31.4397 44.5499 31.4697 44.5199 31.4897 44.4899C31.5097 44.4599 31.5297 44.4299 31.5597 44.3999C31.5797 44.3699 31.5997 44.3399 31.6197 44.2999C31.6397 44.2599 31.6597 44.2299 31.6797 44.1999C31.6997 44.1699 31.7097 44.1299 31.7297 44.0999C31.7497 44.0699 31.7597 44.0299 31.7797 43.9999C31.7897 43.9699 31.8097 43.9299 31.8197 43.8899C31.8297 43.8499 31.8397 43.8199 31.8597 43.7799C31.8697 43.7399 31.8797 43.7099 31.8897 43.6699C31.8897 43.6299 31.9097 43.5999 31.9097 43.5599C31.9097 43.5199 31.9197 43.4899 31.9297 43.4499C31.9297 43.4099 31.9397 43.3799 31.9397 43.3399C31.9397 43.2999 31.9397 43.2599 31.9397 43.2299C31.9397 43.1899 31.9397 43.1499 31.9397 43.1199C31.9397 43.0099 31.9397 42.9099 31.9097 42.7999H33.5997C33.6597 42.7999 33.7297 42.7999 33.7897 42.7999C33.8497 42.7999 33.9197 42.7899 33.9797 42.7799C34.0397 42.7699 34.1097 42.7599 34.1697 42.7399C34.2297 42.7199 34.2897 42.7099 34.3497 42.6899C34.4097 42.6699 34.4697 42.6499 34.5297 42.6199C34.5897 42.5899 34.6497 42.5699 34.6997 42.5399C34.7597 42.5099 34.8097 42.4799 34.8697 42.4399C34.9197 42.4099 34.9797 42.3699 35.0297 42.3299C35.0797 42.2899 35.1297 42.2499 35.1797 42.2099C35.2297 42.1699 35.2697 42.1199 35.3197 42.0799C35.3597 42.0299 35.4097 41.9899 35.4497 41.9399C35.4897 41.8899 35.5297 41.8399 35.5597 41.7899C35.5997 41.7399 35.6297 41.6799 35.6597 41.6299C35.6897 41.5699 35.7197 41.5199 35.7497 41.4599C35.7797 41.3999 35.7997 41.3399 35.8197 41.2799C35.8397 41.2199 35.8597 41.1599 35.8797 41.0999L42.3097 18.2799H45.1997C45.1997 18.2799 45.2997 18.2799 45.3497 18.2799C45.3997 18.2799 45.4497 18.2699 45.4997 18.2599C45.5497 18.2599 45.5997 18.2399 45.6397 18.2199C45.6897 18.2099 45.7297 18.1899 45.7797 18.1699C45.8297 18.1499 45.8697 18.1299 45.9097 18.1099C45.9497 18.0899 45.9997 18.0599 46.0397 18.0299C46.0797 17.9999 46.1197 17.9699 46.1597 17.9399C46.1997 17.9099 46.2297 17.8699 46.2697 17.8399C46.2997 17.7999 46.3397 17.7699 46.3697 17.7299C46.3997 17.6899 46.4297 17.6499 46.4597 17.6099C46.4897 17.5699 46.5097 17.5299 46.5297 17.4799C46.5497 17.4399 46.5697 17.3899 46.5897 17.3499C46.6097 17.2999 46.6197 17.2599 46.6397 17.2099C46.6597 17.1599 46.6597 17.1099 46.6697 17.0699C46.6697 17.0199 46.6797 16.9699 46.6897 16.9199C46.6897 16.8699 46.6897 16.8199 46.6897 16.7699C46.6897 16.7199 46.6897 16.6699 46.6697 16.6299C46.6697 16.5799 46.6497 16.5399 46.6397 16.4899C46.6297 16.4399 46.6097 16.3999 46.5997 16.3499C46.5797 16.2999 46.5697 16.2599 46.5497 16.2199C46.5297 16.1799 46.5097 16.1299 46.4797 16.0899C46.4597 16.0499 46.4297 16.0099 46.3997 15.9699C46.3697 15.9299 46.3397 15.8899 46.3097 15.8599C46.2797 15.8199 46.2397 15.7899 46.2097 15.7599C46.1697 15.7299 46.1397 15.6999 46.0997 15.6699C46.0597 15.6399 46.0197 15.6099 45.9797 15.5899C45.9397 15.5599 45.8997 15.5399 45.8497 15.5199C45.8097 15.4999 45.7597 15.4799 45.7197 15.4599C45.6797 15.4399 45.6297 15.4299 45.5797 15.4099C45.5297 15.3999 45.4897 15.3899 45.4397 15.3799C45.3897 15.3799 45.3497 15.3699 45.2997 15.3599C45.2497 15.3599 45.1997 15.3599 45.1597 15.3599L45.1397 15.4499Z" fill="#0070AC"/>
<path d="M63.9297 41.6297C57.0997 41.6297 52.1797 37.0497 52.1797 29.6697C52.1797 22.2897 57.0097 17.7197 63.9297 17.7197C70.8497 17.7197 75.5097 22.2197 75.5097 29.2997C75.5097 29.9697 75.4697 30.6697 75.3797 31.3797H59.2597C59.5097 34.4197 61.3797 35.8397 63.6797 35.8397C65.6797 35.8397 66.7997 34.8397 67.3897 33.5897H74.9697C73.8497 38.1297 69.7197 41.6297 63.9297 41.6297ZM59.3097 27.4297H68.2197C68.2197 24.8897 66.2197 23.4297 63.8497 23.4297C61.4797 23.4297 59.7297 24.8497 59.3097 27.4297Z" fill="#0070AC"/>
<path d="M95.29 28.6801C95.29 25.5101 93.54 23.7601 90.83 23.7601C88.12 23.7601 86.37 25.5101 86.37 28.6801V41.3001H79.25V18.0601H86.37V21.1401C87.79 19.1801 90.29 17.8101 93.41 17.8101C98.78 17.8101 102.36 21.4801 102.36 27.7201V41.3001H95.28V28.6801H95.29Z" fill="#0070AC"/>
<path d="M117.57 17.72C123.4 17.72 127.52 20.93 128.73 26.47H121.15C120.57 24.85 119.4 23.8 117.44 23.8C114.9 23.8 113.15 25.8 113.15 29.67C113.15 33.54 114.9 35.54 117.44 35.54C119.4 35.54 120.52 34.58 121.15 32.87H128.73C127.52 38.24 123.4 41.62 117.57 41.62C110.74 41.62 105.91 37.04 105.91 29.66C105.91 22.28 110.74 17.71 117.57 17.71V17.72Z" fill="#0070AC"/>
<path d="M141.35 17.72C144.81 17.72 147.26 19.3 148.51 21.34V18.05H155.63V41.29H148.51V38C147.22 40.04 144.76 41.62 141.3 41.62C135.63 41.62 131.09 36.96 131.09 29.62C131.09 22.28 135.63 17.71 141.34 17.71L141.35 17.72ZM143.43 23.93C140.76 23.93 138.35 25.93 138.35 29.64C138.35 33.35 140.77 35.43 143.43 35.43C146.09 35.43 148.51 33.39 148.51 29.68C148.51 25.97 146.14 23.93 143.43 23.93Z" fill="#0070AC"/>
<path d="M167.92 41.3001H160.8V18.0601H167.92V21.9301C169.55 19.4701 172.09 17.8101 175.21 17.8101V25.3501H173.25C169.88 25.3501 167.92 26.5201 167.92 30.5201V41.3101V41.3001Z" fill="#0070AC"/>
<path d="M179.75 23.9699H176.92V18.0599H179.75V12.3999H186.87V18.0599H191.53V23.9699H186.87V33.2999C186.87 34.6699 187.45 35.2599 189.04 35.2599H191.58V41.2999H187.96C183.13 41.2999 179.75 39.2599 179.75 33.2199V23.9699Z" fill="#0070AC"/>
</g>
<defs>
<clipPath id="clip0_2273_1139">
<rect width="191.58" height="45.56" fill="#0070AC"/>
</clipPath>
</defs>
</svg>
